# xmcd
#
# Track frame offsets:
#       150
#       13722
#       25451
#       40459
#       57470
#       70506
#       82237
#       95462
#       108186
#       121586
#
# Disc length: 1779 seconds
#
# Revision: 3
# Processed by: cddbd v1.4PL0 Copyright (c) Steve Scherf et al.
# Submitted via: Gronk 1.4
#
DISCID=7e06f10a
DTITLE=Tim Hus - Songs of West Canada
DYEAR=1900
DGENRE=country
TTITLE0=Craigellaiche
TTITLE1=Bigwood Timber
TTITLE2=Gravel Pit Song
TTITLE3=Pick-Up Trucks, Rodeos, And Dust
TTITLE4=Seine Boat Song
TTITLE5=Man With The Black Hat
TTITLE6=Hells Gate Run
TTITLE7=Open Pit Mine
TTITLE8=Goin' Back To Calgary
TTITLE9=Everybody Likes A Hank Williams Song
EXTD=
EXTT0=
EXTT1=
EXTT2=
EXTT3=
EXTT4=
EXTT5=
EXTT6=
EXTT7=
EXTT8=
EXTT9=
PLAYORDER=
